<svg width="37" height="37" viewBox="0 0 37 37" fill="none" xmlns="http://www.w3.org/2000/svg">
<path d="M8.07693 6.05762C8.63453 6.05762 9.08655 6.50964 9.08655 7.06723C9.08655 7.62483 8.63453 8.07685 8.07693 8.07685L7.06732 8.07685C6.50972 8.07685 6.0577 7.62483 6.0577 7.06723C6.0577 6.50964 6.50972 6.05762 7.06732 6.05762L8.07693 6.05762Z" fill="white"/>
<circle cx="26.7548" cy="8.24514" r="1.51442" transform="rotate(90 26.7548 8.24514)" fill="white"/>
<path d="M20.1154 27.9328C20.1154 32.2502 23.6153 35.7501 27.9327 35.7501C32.2501 35.7501 35.75 32.2502 35.75 27.9328C35.75 23.6154 32.2501 20.1155 27.9327 20.1155C23.6153 20.1155 20.1154 23.6154 20.1154 27.9328Z" fill="white" stroke="white" stroke-width="1.5"/>
<path d="M7.74036 28.4712L7.74036 25.0385C7.74036 24.4066 7.213 23.8943 6.56247 23.8943C5.91194 23.8943 5.38459 24.4066 5.38459 25.0385L5.38459 28.4712C5.38459 29.1032 5.91194 29.6154 6.56247 29.6154C7.213 29.6154 7.74036 29.1032 7.74036 28.4712Z" fill="white"/>
<path d="M35 8.20313C35 6.5807 34.5189 4.99471 33.6175 3.64572C32.7162 2.29672 31.435 1.2453 29.9361 0.624429C28.4372 0.00355401 26.7878 -0.158895 25.1965 0.157624C23.6053 0.474143 22.1436 1.25542 20.9964 2.40264C19.8492 3.54987 19.0679 5.01153 18.7514 6.60278C18.4349 8.19403 18.5973 9.8434 19.2182 11.3423C19.8391 12.8413 20.8905 14.1224 22.2395 15.0238C23.5885 15.9251 25.1744 16.4063 26.7969 16.4063C28.9725 16.4063 31.059 15.542 32.5974 14.0036C34.1357 12.4652 35 10.3787 35 8.20313ZM20.7812 8.20313C20.7812 7.01335 21.1341 5.85029 21.7951 4.86102C22.4561 3.87176 23.3956 3.10072 24.4948 2.64542C25.594 2.19011 26.8035 2.07098 27.9705 2.30309C29.1374 2.53521 30.2093 3.10814 31.0506 3.94944C31.8919 4.79074 32.4648 5.86262 32.6969 7.02954C32.929 8.19645 32.8099 9.406 32.3546 10.5052C31.8993 11.6044 31.1282 12.5439 30.139 13.2049C29.1497 13.8659 27.9867 14.2188 26.7969 14.2188C25.2023 14.2159 23.6739 13.5811 22.5464 12.4536C21.4189 11.3261 20.7841 9.79768 20.7812 8.20313ZM31.7187 28.4375L31.7187 21.875C31.7187 21.0048 31.373 20.1702 30.7577 19.5548C30.1423 18.9395 29.3077 18.5938 28.4375 18.5938L18.5937 18.5938L18.5937 28.4375C18.5937 29.3077 18.9394 30.1423 19.5548 30.7577C20.1702 31.373 21.0048 31.7187 21.875 31.7187L28.4375 31.7187C29.3077 31.7187 30.1423 31.373 30.7577 30.7577C31.373 30.1423 31.7187 29.3077 31.7187 28.4375ZM21.875 29.5312C21.5849 29.5312 21.3067 29.416 21.1016 29.2109C20.8965 29.0058 20.7812 28.7276 20.7812 28.4375L20.7812 20.7813L28.4375 20.7813C28.7276 20.7813 29.0058 20.8965 29.2109 21.1016C29.416 21.3067 29.5312 21.5849 29.5312 21.875L29.5312 28.4375C29.5312 28.7276 29.416 29.0058 29.2109 29.2109C29.0058 29.416 28.7276 29.5312 28.4375 29.5312L21.875 29.5312ZM16.4062 6.05938C16.4062 5.32257 16.1136 4.61595 15.5926 4.09495C15.0716 3.57395 14.3649 3.28125 13.6281 3.28125L6.05938 3.28125C5.32257 3.28125 4.61595 3.57395 4.09495 4.09495C3.57395 4.61595 3.28125 5.32257 3.28125 6.05938L3.28125 13.6281C3.28125 14.3649 3.57395 15.0716 4.09495 15.5926C4.61595 16.1136 5.32257 16.4063 6.05938 16.4063L16.4062 16.4063L16.4062 6.05938ZM6.05938 14.2188C5.90273 14.2188 5.7525 14.1565 5.64174 14.0458C5.53097 13.935 5.46875 13.7848 5.46875 13.6281L5.46875 6.05938C5.46875 5.90273 5.53098 5.75251 5.64174 5.64174C5.7525 5.53098 5.90273 5.46875 6.05938 5.46875L13.6281 5.46875C13.7848 5.46875 13.935 5.53098 14.0458 5.64174C14.1565 5.75251 14.2187 5.90273 14.2187 6.05938L14.2187 14.2188L6.05938 14.2188ZM16.4062 31.7187L16.4062 18.5938L3.28125 18.5938C2.41101 18.5938 1.57641 18.9395 0.961055 19.5548C0.345702 20.1702 -9.18147e-07 21.0048 -9.56187e-07 21.875L-1.38647e-06 31.7187C-1.42451e-06 32.589 0.345702 33.4236 0.961054 34.0389C1.57641 34.6543 2.41101 35 3.28125 35L13.125 35C13.9952 35 14.8298 34.6543 15.4452 34.0389C16.0605 33.4236 16.4062 32.589 16.4062 31.7187ZM3.28125 32.8125C2.99117 32.8125 2.71297 32.6973 2.50785 32.4921C2.30273 32.287 2.1875 32.0088 2.1875 31.7187L2.1875 21.875C2.1875 21.5849 2.30273 21.3067 2.50785 21.1016C2.71297 20.8965 2.99117 20.7813 3.28125 20.7813L14.2187 20.7813L14.2187 31.7187C14.2187 32.0088 14.1035 32.287 13.8984 32.4921C13.6933 32.6973 13.4151 32.8125 13.125 32.8125L3.28125 32.8125Z" fill="#79E2FB"/>
</svg>
