<svg width="35" height="35" viewBox="0 0 35 35" fill="none" xmlns="http://www.w3.org/2000/svg">
<path d="M6.05762 26.9231C6.05762 26.3655 6.50964 25.9135 7.06723 25.9135C7.62483 25.9135 8.07685 26.3655 8.07685 26.9231V27.9327C8.07685 28.4903 7.62483 28.9423 7.06723 28.9423C6.50964 28.9423 6.05762 28.4903 6.05762 27.9327V26.9231Z" fill="#79E2FB"/>
<circle cx="8.24514" cy="8.24514" r="1.51442" fill="#79E2FB"/>
<path d="M27.9328 14.1346C31.836 14.1346 35.0001 10.9705 35.0001 7.06731C35.0001 3.16414 31.836 0 27.9328 0C24.0296 0 20.8655 3.16414 20.8655 7.06731C20.8655 10.9705 24.0296 14.1346 27.9328 14.1346Z" fill="#79E2FB"/>
<path d="M28.4712 27.2596H25.0385C24.4066 27.2596 23.8943 27.787 23.8943 28.4375C23.8943 29.0881 24.4066 29.6154 25.0385 29.6154H28.4712C29.1032 29.6154 29.6154 29.0881 29.6154 28.4375C29.6154 27.787 29.1032 27.2596 28.4712 27.2596Z" fill="#79E2FB"/>
<path d="M8.20313 0C6.5807 0 4.99471 0.481105 3.64572 1.38248C2.29672 2.28385 1.2453 3.565 0.624429 5.06393C0.0035543 6.56285 -0.158895 8.21222 0.157624 9.80348C0.474144 11.3947 1.25542 12.8564 2.40264 14.0036C3.54987 15.1508 5.01153 15.9321 6.60278 16.2486C8.19403 16.5651 9.8434 16.4027 11.3423 15.7818C12.8413 15.1609 14.1224 14.1095 15.0238 12.7605C15.9251 11.4115 16.4063 9.82555 16.4063 8.20312C16.4063 6.02752 15.542 3.94102 14.0036 2.40264C12.4652 0.864255 10.3787 0 8.20313 0ZM8.20313 14.2188C7.01335 14.2188 5.85029 13.8659 4.86103 13.2049C3.87176 12.5439 3.10072 11.6044 2.64542 10.5052C2.19011 9.40599 2.07098 8.19645 2.30309 7.02953C2.53521 5.86262 3.10814 4.79074 3.94944 3.94944C4.79074 3.10814 5.86262 2.5352 7.02954 2.30309C8.19645 2.07097 9.406 2.1901 10.5052 2.64541C11.6044 3.10072 12.5439 3.87176 13.2049 4.86102C13.8659 5.85029 14.2188 7.01335 14.2188 8.20312C14.2159 9.79768 13.5811 11.3261 12.4536 12.4536C11.3261 13.5811 9.79768 14.2159 8.20313 14.2188ZM28.4375 3.28125H21.875C21.0048 3.28125 20.1702 3.62695 19.5548 4.24231C18.9395 4.85766 18.5938 5.69226 18.5938 6.5625V16.4062H28.4375C29.3077 16.4062 30.1423 16.0605 30.7577 15.4452C31.373 14.8298 31.7188 13.9952 31.7188 13.125V6.5625C31.7188 5.69226 31.373 4.85766 30.7577 4.24231C30.1423 3.62695 29.3077 3.28125 28.4375 3.28125ZM29.5312 13.125C29.5312 13.4151 29.416 13.6933 29.2109 13.8984C29.0058 14.1035 28.7276 14.2188 28.4375 14.2188H20.7813V6.5625C20.7813 6.27242 20.8965 5.99422 21.1016 5.7891C21.3067 5.58398 21.5849 5.46875 21.875 5.46875H28.4375C28.7276 5.46875 29.0058 5.58398 29.2109 5.7891C29.416 5.99422 29.5312 6.27242 29.5312 6.5625V13.125ZM6.05938 18.5938C5.32257 18.5938 4.61595 18.8864 4.09495 19.4074C3.57395 19.9284 3.28125 20.6351 3.28125 21.3719V28.9406C3.28125 29.6774 3.57395 30.3841 4.09495 30.9051C4.61595 31.4261 5.32257 31.7188 6.05938 31.7188H13.6281C14.3649 31.7188 15.0716 31.4261 15.5926 30.9051C16.1136 30.3841 16.4063 29.6774 16.4063 28.9406V18.5938H6.05938ZM14.2188 28.9406C14.2188 29.0973 14.1565 29.2475 14.0458 29.3583C13.935 29.469 13.7848 29.5312 13.6281 29.5312H6.05938C5.90273 29.5312 5.75251 29.469 5.64174 29.3583C5.53098 29.2475 5.46875 29.0973 5.46875 28.9406V21.3719C5.46875 21.2152 5.53098 21.065 5.64174 20.9542C5.75251 20.8435 5.90273 20.7812 6.05938 20.7812H14.2188V28.9406ZM31.7188 18.5938H18.5938V31.7188C18.5938 32.589 18.9395 33.4236 19.5548 34.0389C20.1702 34.6543 21.0048 35 21.875 35H31.7188C32.589 35 33.4236 34.6543 34.0389 34.0389C34.6543 33.4236 35 32.589 35 31.7188V21.875C35 21.0048 34.6543 20.1702 34.0389 19.5548C33.4236 18.9395 32.589 18.5938 31.7188 18.5938ZM32.8125 31.7188C32.8125 32.0088 32.6973 32.287 32.4921 32.4921C32.287 32.6973 32.0088 32.8125 31.7188 32.8125H21.875C21.5849 32.8125 21.3067 32.6973 21.1016 32.4921C20.8965 32.287 20.7813 32.0088 20.7813 31.7188V20.7812H31.7188C32.0088 20.7812 32.287 20.8965 32.4921 21.1016C32.6973 21.3067 32.8125 21.5849 32.8125 21.875V31.7188Z" fill="white"/>
</svg>
